<svg width="19" height="23" viewBox="0 0 19 23" fill="none" xmlns="http://www.w3.org/2000/svg">
<path d="M13.3528 10.7366C13.2124 12.5367 12.6999 14.6373 12.3506 16.4179C12.1318 17.5652 11.7956 18.7189 11.9066 19.8823C11.9882 20.7775 12.442 21.9732 13.9372 21.9829C14.3311 21.9962 14.7209 21.9011 15.0635 21.7082C15.4028 21.4714 15.6539 21.1307 15.7785 20.7387C15.9632 20.1975 16.03 19.6236 15.9744 19.055C15.8777 18.1687 15.7262 17.2891 15.5206 16.4212C15.1941 14.6405 14.6587 12.527 14.5183 10.7269M3.85921 11.1664C3.72209 12.9212 3.20628 14.8215 2.87981 16.5601C2.66434 17.6783 2.3346 18.7997 2.44234 19.934C2.52395 20.8066 2.96794 21.9732 4.43377 21.9829C4.82071 21.9972 5.20401 21.9043 5.5405 21.7147C5.87377 21.4845 6.12061 21.1516 6.24241 20.7678C6.42424 20.2404 6.4899 19.6807 6.43501 19.1261C6.34079 18.2623 6.19141 17.4052 5.98776 16.5601C5.66129 14.8215 5.14221 12.9212 5.00836 11.1664M1.01567 1.75896V7.83455C1.01825 8.73059 1.37875 9.58924 2.0185 10.2231C2.65826 10.857 3.52534 11.2147 4.43052 11.2181C5.33626 11.2156 6.20416 10.8583 6.84462 10.2243C7.48508 9.59029 7.84602 8.73114 7.84861 7.83455V1.75896M3.28788 1.75896V6.05065M5.61885 1.75896V6.05065M17.4369 5.90199C17.4369 8.60064 15.87 10.7883 13.9372 10.7883C12.0044 10.7883 10.4375 8.60064 10.4375 5.90199C10.4375 3.20335 12.0044 1.01567 13.9372 1.01567C15.87 1.01567 17.4369 3.20335 17.4369 5.90199Z" stroke="white" stroke-width="2" stroke-linecap="round" stroke-linejoin="round"/>
</svg>
