<svg width="31" height="38" viewBox="0 0 31 38" fill="none" xmlns="http://www.w3.org/2000/svg">
<path d="M21.32 15.7625C22.1127 15.2447 23.0224 14.9361 23.965 14.8655C25.5103 14.7306 27.0456 15.2185 28.2333 16.222C29.4209 17.2254 30.1636 18.6623 30.2981 20.2164C30.415 21.5406 30.0791 22.8651 29.3459 23.9712C28.6947 24.907 27.9612 25.782 27.1543 26.5858L26.9965 26.7416M9.48515 15.7623C8.69685 15.2469 7.79262 14.9384 6.85519 14.8653C6.08965 14.7964 5.31813 14.8805 4.58495 15.1124C3.85178 15.3444 3.17141 15.7197 2.58292 16.2169C1.99443 16.7141 1.50942 17.3235 1.15576 18.0098C0.802108 18.6962 0.586773 19.4459 0.522126 20.2162C0.407951 21.538 0.737926 22.8601 1.45924 23.9709C2.13938 25.1329 3.12881 26.0807 4.31592 26.7073M17.1634 8.02469C18.9101 8.31648 20.5418 9.09075 21.8763 10.2611C23.2108 11.4315 24.1956 12.9521 24.7208 14.6527M6.08434 14.6828C6.59773 13.1235 7.49234 11.7194 8.68606 10.5985C9.87977 9.47759 11.3343 8.67598 12.9162 8.26778M12.4023 10.8826L11.843 11.4602M18.8714 13.0564L17.9947 13.9381M5.85762 19.517L4.99608 20.3987M20.2166 20.7787L19.476 21.5236M12.2058 18.5745L11.4652 19.3194M27.3659 19.9578L26.8217 20.5051M14.9718 5.09075C14.3745 5.09075 13.8017 5.32919 13.3793 5.75396C12.957 6.17873 12.7197 6.75503 12.7197 7.35575C12.7242 7.58255 12.7598 7.80754 12.8255 8.02453C12.9556 8.50359 13.2396 8.92579 13.6333 9.22551C14.027 9.52522 14.5083 9.68575 15.002 9.68162C15.5993 9.68162 16.1721 9.44282 16.5945 9.01804C17.0168 8.59327 17.2541 8.01734 17.2541 7.41662C17.2623 7.11152 17.2091 6.80758 17.0977 6.52368C16.9862 6.23979 16.8189 5.98158 16.6057 5.76435C16.3926 5.54712 16.138 5.3754 15.8572 5.25961C15.5764 5.14383 15.2752 5.08654 14.9718 5.09075ZM14.9718 5.09075C14.813 4.21644 14.9351 3.37572 15.267 2.55201C15.5989 1.72829 16.1571 1.01652 16.8762 0.50003M26.9965 26.7416C26.8096 28.8661 26.2343 30.9421 25.2951 32.8638C24.9654 33.7247 24.4698 34.5115 23.8369 35.1793C23.2041 35.8471 22.4463 36.3826 21.6071 36.7551C19.7189 37.3364 18.131 37.5 15.7729 37.5C13.4147 37.5 11.6202 37.3747 9.63629 36.7551C8.79713 36.3826 8.03937 35.8471 7.4065 35.1793C6.77362 34.5115 6.27808 33.7247 5.9483 32.8638C4.81315 30.4933 4.2291 27.8942 4.24034 25.2631C4.25311 24.9018 4.35002 24.5482 4.52328 24.2314C4.69654 23.9145 4.94132 23.643 5.23792 23.4386C5.69013 23.2492 6.1804 23.1697 6.6689 23.2067C7.1574 23.2437 7.63033 23.3963 8.04925 23.6517C8.87732 24.1753 9.83712 24.4496 10.8152 24.4422C12.8104 24.1685 13.7626 21.6905 15.9542 21.9946C17.768 22.253 18.7354 24.1989 20.4887 24.4422C21.4712 24.4475 22.4353 24.1734 23.2698 23.6517C23.6841 23.3917 24.1549 23.2363 24.6419 23.1993C25.1288 23.1622 25.6175 23.2443 26.066 23.4386C26.3652 23.6403 26.6119 23.9114 26.7855 24.2288C26.9591 24.5462 27.0544 24.901 27.0636 25.2631C27.0621 25.7576 27.0397 26.2509 26.9965 26.7416Z" stroke="#E95322" stroke-linecap="round" stroke-linejoin="round"/>
</svg>
