<svg width="23" height="38" viewBox="0 0 23 38" fill="none" xmlns="http://www.w3.org/2000/svg">
<path d="M18.725 9.08024C20.0593 14.531 19.8393 20.9221 16.9802 25.741C15.9392 27.5041 17.0682 29.37 17.6693 31.3388C18.0799 32.661 18.813 34.0567 18.3291 35.3496C18.0913 35.94 17.6876 36.4484 17.1671 36.8134C16.6467 37.1785 16.0317 37.3845 15.3967 37.4064C13.7178 37.5312 12.0319 37.5312 10.3529 37.4064C3.19783 36.9656 10.4702 29.2084 8.41755 25.7557C6.68518 22.5349 5.80201 18.9244 5.85168 15.2658C5.85168 13.2237 5.61708 10.0942 7.20059 8.52211C9.51721 6.23017 13.6519 6.21551 16.2764 7.44963M6.15958 18.6006C6.3062 20.4077 8.3589 20.6723 9.7518 20.2462C11.1447 19.8202 12.5229 18.6153 14.1504 18.2921C15.1182 18.0555 16.1386 18.1746 17.0263 18.6275C17.9141 19.0803 18.6104 19.8373 18.9889 20.7606M13.2267 23.6253L21.6428 0.500136M9.34126 34.409C11.5269 35.0981 13.8709 35.0981 16.0565 34.409M5.79303 15.4271C5.49856 15.4862 5.19895 15.5159 4.89863 15.5154C3.73204 15.5154 2.61324 15.051 1.78833 14.2244C0.963427 13.3979 0.499998 12.2767 0.499998 11.1078C0.499998 9.93882 0.963427 8.8177 1.78833 7.99112C2.61324 7.16454 3.73204 6.7002 4.89863 6.7002C6.06523 6.7002 7.18403 7.16454 8.00894 7.99112C8.83384 8.8177 9.29727 9.93882 9.29727 11.1078M6.23289 10.3879C7.68553 11.0576 9.25949 11.4225 10.8581 11.4604C12.4566 11.4983 14.046 11.2082 15.5287 10.6081" stroke="#E95322" stroke-linecap="round" stroke-linejoin="round"/>
</svg>
