<svg width="34" height="29" viewBox="0 0 34 29" fill="none" xmlns="http://www.w3.org/2000/svg">
<path d="M28.5808 9.6191V22.6834C28.5808 24.0934 28 25.4457 26.9662 26.4427C25.9324 27.4398 24.5303 28 23.0683 28H20.7209V23.0334C20.7209 22.0816 20.3289 21.1687 19.6311 20.4957C18.9333 19.8227 17.9869 19.4446 17 19.4446C16.0131 19.4446 15.0667 19.8227 14.3689 20.4957C13.6711 21.1687 13.2791 22.0816 13.2791 23.0334V28H10.9317C9.46966 28 8.06753 27.4398 7.03374 26.4427C5.99995 25.4457 5.41917 24.0934 5.41917 22.6834V9.61913M33 14.2831L22.7192 3.43278C21.9935 2.6663 21.1101 2.05402 20.1254 1.63516C19.1406 1.21629 18.0762 1 17 1C15.9238 1 14.8594 1.21629 13.8746 1.63516C12.8899 2.05402 12.0065 2.6663 11.2808 3.43278L1 14.2831" stroke="white" stroke-width="2" stroke-linecap="round" stroke-linejoin="round"/>
</svg>
