<svg width="30" height="30" viewBox="0 0 30 30" fill="none" xmlns="http://www.w3.org/2000/svg">
<path d="M15.0063 4.52886C15.0063 4.52886 14.4045 5.06108 13.7819 6.00917M12.4571 11.0434C12.2516 8.89731 13.0319 7.15142 13.7819 6.00917M13.7819 6.00917C14.5042 4.91306 15.4009 4.06455 16.318 3.419M16.318 3.419C17.9326 2.28245 19.6104 1.77502 20.5111 1.65305C21.5641 1.60849 22.6147 1.79174 23.5992 2.19165C24.5838 2.59155 25.4819 3.19979 26.2392 3.97966C29.5142 7.39512 29.9951 13.8352 27.0349 17.6369C24.0747 21.4386 19.2213 23.1231 16.2349 26.9899C15.751 27.6051 15.3385 28.2799 15.0062 29C14.6754 28.2801 14.2644 27.6052 13.7819 26.9899C10.7911 23.1231 5.96801 21.4758 2.9772 17.6369C-0.013623 13.798 0.498101 7.39977 3.77314 3.97966C5.52766 1.74614 9.54054 -1.14343 16.318 3.419Z" stroke="white" stroke-width="2" stroke-linecap="round" stroke-linejoin="round"/>
</svg>
