<svg width="29" height="42" viewBox="0 0 29 42" fill="none" xmlns="http://www.w3.org/2000/svg">
<path d="M14.4912 14.5318C18.2279 14.5318 21.257 11.5026 21.257 7.76589C21.257 4.02919 18.2279 1 14.4912 1C10.7545 1 7.72526 4.02919 7.72526 7.76589C7.72526 11.5026 10.7545 14.5318 14.4912 14.5318Z" stroke="white" stroke-width="2" stroke-linecap="round" stroke-linejoin="round"/>
<path d="M26.9463 34.2942C23.6987 41.5893 14.4491 40.988 14.4491 40.988C14.4491 40.988 5.19336 41.5652 1.95175 34.2942C1.32437 32.8954 1 31.3797 1 29.8467C1 28.3137 1.32437 26.7981 1.95175 25.3994C5.19336 18.1042 14.4491 18.7056 14.4491 18.7056C14.4491 18.7056 23.6987 18.1283 26.9463 25.3994C27.5737 26.7981 27.8981 28.3137 27.8981 29.8467C27.8981 31.3797 27.5737 32.8954 26.9463 34.2942Z" stroke="white" stroke-width="2" stroke-linecap="round" stroke-linejoin="round"/>
</svg>
