<svg width="12" height="8" viewBox="0 0 12 8" fill="none" xmlns="http://www.w3.org/2000/svg">
<path d="M5.16505 2.05825H11.3786M5.16505 2.05825C5.16505 2.91617 4.46957 3.61165 3.61165 3.61165C2.75373 3.61165 2.05825 2.91617 2.05825 2.05825M5.16505 2.05825C5.16505 1.20033 4.46957 0.504854 3.61165 0.504854C2.75373 0.504854 2.05825 1.20033 2.05825 2.05825M0.504854 2.05825H2.05825M9.04854 5.94175H11.3786M9.04854 5.94175C9.04854 6.79966 8.35306 7.49514 7.49514 7.49514C6.63722 7.49514 5.94175 6.79966 5.94175 5.94175M9.04854 5.94175C9.04854 5.08383 8.35306 4.38835 7.49514 4.38835C6.63722 4.38835 5.94175 5.08383 5.94175 5.94175M0.504854 5.94175H5.94175" stroke="#F5F5F5" stroke-linecap="round" stroke-linejoin="round"/>
</svg>
