<svg width="23" height="27" viewBox="0 0 23 27" fill="none" xmlns="http://www.w3.org/2000/svg">
<path fill-rule="evenodd" clip-rule="evenodd" d="M11.2399 2.7C8.25754 2.7 5.83988 5.11766 5.83988 8.09999C5.83988 11.0823 8.25754 13.5 11.2399 13.5C14.2222 13.5 16.6399 11.0823 16.6399 8.09999C16.6399 5.11766 14.2222 2.7 11.2399 2.7ZM16.1552 14.5386C18.0911 13.0585 19.3399 10.7251 19.3399 8.09999C19.3399 3.62649 15.7134 0 11.2399 0C6.76637 0 3.13988 3.62649 3.13988 8.09999C3.13988 10.7251 4.38864 13.0585 6.32454 14.5386C4.96715 15.1391 3.71836 15.9888 2.64853 17.0586C1.82243 17.8847 1.1275 18.8177 0.577273 19.8249C-0.438085 21.6836 -0.0240048 23.5787 1.11946 24.9188C2.22026 26.2089 3.98366 27 5.83988 27H16.6399C18.4961 27 20.2595 26.2089 21.3603 24.9188C22.5037 23.5787 22.9178 21.6836 21.9025 19.8249C21.3522 18.8177 20.6573 17.8847 19.8312 17.0586C18.7614 15.9888 17.5126 15.1391 16.1552 14.5386ZM11.2399 16.2C8.73358 16.2 6.32994 17.1956 4.55772 18.9678C3.91511 19.6104 3.37469 20.3359 2.94677 21.1193C2.53237 21.8779 2.66605 22.5717 3.17337 23.1662C3.72335 23.8108 4.71376 24.3 5.83988 24.3H16.6399C17.766 24.3 18.7564 23.8108 19.3064 23.1662C19.8137 22.5717 19.9474 21.8779 19.533 21.1193C19.1051 20.3359 18.5646 19.6104 17.922 18.9678C16.1498 17.1956 13.7462 16.2 11.2399 16.2Z" fill="white"/>
</svg>
